<svg xmlns="http://www.w3.org/2000/svg" viewBox="0 0 64 64" width="128" height="128"><defs><clipPath id="eve1"><path d="M34 24l1.1-3.5 1.8-1.1 1.8 1.1 1.3 3.5 .8 7.5 .4 11 .2 11-.4 7.5-1.1 3.5-1.8 1.1-1.8-1.1-1.3-3.5-.8-7.5-.4-11-.2-11z"/></clipPath><clipPath id="eve2"><path d="M24 45l-1.8-1.4-2.8-1.5-2.9-1.3-2.5-.8-2 0-1.9 .4-1.4 .8-.7 .8 .1 .9 .8 1 1.4 1.1 1.7 1 2.5 1.2 3.2 1.4 3.1 1 2.2 .4 1.2-.6 .6-1.3 0-1.6z"/></clipPath><clipPath id="eve3"><path d="M40 45l1.8-1.4 2.8-1.5 2.9-1.3 2.5-.8 2 0 1.9 .4 1.4 .8 .7 .8-.1 .9-.8 1-1.4 1.1-1.7 1-2.5 1.2-3.2 1.4-3.1 1-2.2 .4-1.2-.6-.6-1.3 0-1.6z"/></clipPath></defs><path d="M24.2 23.9l3.2-3.5 4.5-1.1 4.6 1.2 3.2 3.5 1.9 7.4 1 11 0 10.9-1.3 7.5-3.6 3.5-5.5 1.2-5.5-1-3.7-3.5-1.4-7.5-.1-11.1 .9-11z" fill="#6b4420" opacity="0.18"/><g clip-path="url(#eve1)"><path d="M53.8 19.5l6.8 39.1M52.5 19.7l6.8 39.1M51.4 19.9l6.8 39.1M49.9 20.2l7 39M48.8 20.4l6.9 39M47.5 20.6l7 39M46.4 20.8l7 39M45.5 21l6.8 39.1M43.9 21.2l7 39M42.9 21.4l6.9 39M41.7 21.6l6.9 39M40.8 21.8l6.8 39.1M39.5 22l6.8 39.1M37.9 22.3l7 39M36.8 22.5l7 39M35.6 22.7l7 39M34.8 22.8l6.8 39.1M33.8 23l6.8 39.1M32 23.3l7 39M30.8 23.6l7.1 39M29.7 23.7l7 39M28.7 23.9l6.9 39.1M27.5 24.1l6.9 39M26.7 24.3l6.7 39.1M25.4 24.5l6.8 39.1M23.8 24.8l7 39M23.2 24.9l6.7 39.1M21.7 25.1l6.9 39.1M20.3 25.4l7 39M19.2 25.6l6.9 39M18.5 25.7l6.7 39.1M17.2 25.9l6.7 39.1M15.7 26.2l6.9 39M14.8 26.4l6.8 39.1" stroke="#3a2616" stroke-width="0.5" stroke-linecap="round" fill="none"/></g><path d="M23.9 24l-.6 4.5-.3 6.6-.4 6.7-.2 7.1 0 7.3 .2 5.1 .5 0 .6-5.1 .5-7.2 .3-7.1 .1-6.8 0-6.5-.2-4.6z" fill="#2a1a0e"/><path d="M39.5 24l-.4 4.7 .1 6.6 .1 6.8 .3 6.9 .3 7 .6 4.9 .4 0 .4-5 0-7-.1-6.9-.2-6.7-.4-6.7-.6-4.6z" fill="#2a1a0e"/><path d="M21.1 61.1l2.9 .5 4 .2 4.1 .1 4.1-.1 4.2-.2 2.9-.5-.1-.4-2.9-.4-4.1-.1-4.1 0-4.1 0-4 .1-2.8 .3z" fill="#2a1a0e"/><path d="M22.8 41.8l2.5 .5 3.5 .3 3.5 .2 3.3 0 3.2-.1 2.2-.4-.1-.3-2.2-.3-3.1-.1-3.2-.1-3.5-.1-3.6 0-2.5 .1z" fill="#2a1a0e"/><path d="M25.7 29.3l.9 1 1.7 .7 1.3 .1 .2-.3-1-1-1.6-.8-1.3-.1z" fill="#2a1a0e"/><path d="M38.1 29.1l-1.3 0-1.6 .6-1 .9 .1 .3 1.4 0 1.6-.6 1-.9z" fill="#2a1a0e"/><path d="M29.7 33l-.1 .3-.1 .2-.2 .3-.3 .2-.2 0-.3 .1-.3-.1-.2-.1-.2-.1-.1-.3-.2-.3 0-.2 0-.2 .1-.3 .2-.2 .1-.2 .3-.1 .3-.1 .3 0 .2 .1 .3 .2 .2 .2 .1 .3z" fill="#2a1a0e"/><path d="M36.6 33l-.1 .3-.1 .2-.2 .2-.2 .2-.3 .1-.2 0-.3 0-.2-.1-.2-.1-.2-.3-.2-.2 0-.3 0-.2 .2-.3 .1-.2 .2-.2 .3-.1 .3-.1 .3 .1 .2 0 .2 .2 .2 .3 .1 .2z" fill="#2a1a0e"/><path d="M26.7 38.3l1.6-.3 2.1-.7 1.9-.4 1.5 .3 1.7 .6 1.2 .3 .1-.3-1-.7-1.6-.9-1.9-.5-2.2 .5-2.1 .9-1.4 .9z" fill="#2a1a0e"/><path d="M28 37.9l-.1 .9 .1 1.2 .8 .6 .5-1 .7-1.5 .6-1.1-.6-.3-.4 1.2-.6 1.5-.5 .7 .2-.3-.2-1.1-.2-.8z" fill="#2a1a0e"/><path d="M33.8 37.5l.4 .9 .3 1.2 .7 .9 .6-.8 .2-1.1 .3-.8-.6-.2 0 .9-.4 1 0 .3-.2-.4-.6-1.1-.3-.9z" fill="#2a1a0e"/><path d="M30 46.9l-.2 .7-.5 .5-.7 .2-.8 0-.6-.6-.5-.8 .2-.7 .5-.5 1.1 0 1.1 .3 .1 .4zM30.6 46.1l-.7-.7-1.3-.3-1.3 .2-.8 .7-.4 1 .5 1.2 .9 .8 1.2 .1 1-.5 .6-.8 .1-.8z" fill="#2a1a0e" fill-rule="evenodd"/><path d="M37 47.1l-.3 .7-.6 .6-.6 .2-.5 0-.6-.7-.4-.9 .2-.9 .4-.6 .8-.1 .9 .2 .7 .7zM37.4 46l-.7-1-1.3-.5-1.3 .2-.7 1.1 0 1.3 .5 1.1 .9 .8 .8 .2 .8-.3 .9-.6 .6-1.1z" fill="#2a1a0e" fill-rule="evenodd"/><path d="M29.2 52l1.2-.4 1.8-.1 1.8 .1 1.2 .4 .2 .8-.2 1.1-.6 1.1-.7 .8-.9 .5-1.1 .2-1.1 0-.8-.3-.6-.8-.4-1.3-.2-1.2z" fill="#2a1a0e"/><path d="M24 44.9l-2.7-1.8-3.9-2.3-3.6-1.4-2.9 .2-2.5 1-1.3 1.7 1.2 1.7 2.2 1.4 1 .7-.8 .4-2 .8-1.2 1.6 1.8 .8 2.3 .3 2.6 .2 3.1 .4 3.3 .4 2.4 .1 .1-.4-2.4-.5-3.3-.5-3-.5-2.6-.4-2.3-.2-.6-.1 .5 .1 2.1-1 1.3-1.7-1.4-1.7-2.3-1.3-.8-.6 .8-.7 2-.9 2.5-.2 3.4 1.2 3.9 2.1 2.9 1.4z" fill="#2a1a0e"/><path d="M39.8 45.5l3-1.4 4.1-2 3.4-1.3 2.5 0 1.9 .6 .6 .5-.7 .7-2 1.4-1.3 2 1.4 1.8 2 1.3 .7 .1-.6-.2-2.2 0-2.6 .2-3.2 .5-3.4 .6-2.5 .6 .1 .3 2.5-.2 3.5-.5 3.1-.3 2.5 0 2.3 .1 1.8-.8-1.1-1.6-2-1.2-.8-.7 .8-.9 2-1.5 1.1-1.8-1.5-1.4-2.3-.7-2.8 0-3.6 1.5-4 2.3-2.8 1.7z" fill="#2a1a0e"/><g clip-path="url(#eve2)"><path d="M3.2 37.5l20.2-5.3M3.6 38.9l20.2-5.4M3.9 40.1l20.2-5.3M4.3 41.6l20.2-5.4M4.7 43.2l20.1-5.5M5.1 44.5l20.1-5.5M5.5 46.1l20.1-5.6M5.8 47.2l20.1-5.5M6.1 48.3l20.2-5.3M6.6 50.1l20.1-5.6M6.9 51.4l20.1-5.5M7.1 52.2l20.2-5.2M7.6 53.8l20.2-5.4M8 55.6l20.1-5.6M8.3 56.7l20.1-5.5" stroke="#3a2616" stroke-width="0.4" stroke-linecap="round" fill="none"/></g><g clip-path="url(#eve3)"><path d="M40.6 32.4l20.2 5.3M40.2 33.6l20.2 5.4M39.8 35.3l20.2 5.2M39.6 36.1l20.1 5.5M39.2 37.7l20.2 5.4M38.8 39.1l20.2 5.3M38.5 40l20.1 5.6M38.1 41.6l20.1 5.5M37.8 42.8l20.1 5.5M37.4 44.2l20.1 5.5M37 45.7l20.2 5.4M36.7 46.9l20.1 5.5M36.3 48.4l20.2 5.4M35.9 50l20.2 5.3M35.5 51.5l20.2 5.2" stroke="#3a2616" stroke-width="0.4" stroke-linecap="round" fill="none"/></g><path d="M25 20l-.4-1.7-.2-2.1 0-2.1 .6-1.8 1.2-1.8 1.7-1.8 2-1.4 1.9-.6 2 .5 2.1 1.3 2 1.7 1.3 1.7 .5 1.9-.1 2.1-.4 2.1-.4 1.8-.4 1.4-.5 1.2-.8 .9-1.1 .7-1.8 .5-2.3 .2-2.3-.1-1.8-.3-1.1-.7-.8-.9-.5-1.2z" fill="#e8d8b0" opacity="0.25"/><path d="M25.7 19.9l-.5-2.3-.2-2.7 .5-2.3 1.6-2.2 2.6-2 2.3-.9 2.4 .7 2.5 1.9 1.7 2.2 .4 2.4-.2 2.8-.6 2.3-.6 1.6-.9 .9-1.2 .7-2.1 .4-2.8 .1-2.2-.2-1.3-.7-1-1zM25.3 22l1.1 1.5 1.6 1 2.5 .4 3 0 2.5-.5 1.7-.9 1-1.5 .6-1.9 .5-2.5 .2-2.9-.7-2.7-1.9-2.4-2.6-2-2.8-1-2.9 .9-2.7 2.1-2 2.4-.8 2.8 .2 3 .6 2.5z" fill="#2a1a0e" fill-rule="evenodd"/><path d="M26.8 15.1l.6-.5 .9-.4 .9-.3 .7 .2 .3 .7 .2 1.2-.1 1.3-.2 .8-.6 .4-.9 .1-.9-.2-.7-.3-.3-.6-.2-.8 .1-.9z" fill="#2a1a0e"/><path d="M34 13.8l.6-.1 .9 .2 .8 .5 .7 .5 .3 .7 .1 .8-.1 .9-.2 .6-.7 .3-.9 .1-1-.1-.6-.4-.3-.8-.1-1.2 .1-1.2z" fill="#2a1a0e"/><path d="M29.2 22.1l.7 .3 .9 .1 1 .1 1.1-.1 1.1-.1 .8-.3 0-.1-.8-.2-1.2 0-1 0-1 0-.9 0-.6 .2z" fill="#2a1a0e"/><path d="M25.3 12.5l-1.6-1.1-2.3-1.2-1.8-1.4-1.1-1.9-.8-2.3-.8-1.6-.4 .1 .1 1.8 .6 2.5 1.3 2.3 2.2 1.5 2.6 1.2 1.9 .5z" fill="#2a1a0e"/><path d="M39.1 13.4l2-.8 2.6-1.5 2.1-1.9 1-2.3 .3-2.4-.1-1.7-.3-.1-.6 1.6-.5 2.2-.8 1.9-1.8 1.6-2.5 1.7-1.6 1.3z" fill="#2a1a0e"/><path d="M13.6 50.4l.1 .5 .1 .6 .2 .7-.1 1-.1 1.2 0 .9 .2 0 .3-.8 .2-1.2 .2-1.1-.2-.9-.3-.6-.4-.4z" fill="#2a1a0e"/><path d="M13.9 54.6l-.8 .9-.7 1.9-.3 1.8 .2 1.6 .6 1.5 .9 .8 .9-.8 .9-1.5 .5-1.7-.3-1.8-.8-1.9zM14.3 55.9l.7 1.6 .5 1.6-.3 1.5-.8 1.4-.6 .5-.2-.5-.5-1.4-.1-1.4 .2-1.7 .4-1.7 .3-.7z" fill="#2a1a0e" fill-rule="evenodd"/><path d="M50.2 50.3l-.3 .5-.3 .9-.1 .9 0 .9 .2 .8 .3 .6 .1 0 .1-.6-.1-.9 0-.7 .1-.9 .2-.9-.1-.6z" fill="#2a1a0e"/><path d="M49.7 54.8l-.9 1.1-.4 1.7-.1 1.7 .4 1.7 .5 1.6 1 1 1-.9 .6-1.7 .2-1.7-.6-1.7-.8-1.7zM50.2 56.2l.8 1.6 .2 1.5-.3 1.5-.5 1.5-.2 .5-.4-.5-.7-1.5-.3-1.5 .2-1.6 .5-1.5 .2-.5z" fill="#2a1a0e" fill-rule="evenodd"/></svg>
