<svg xmlns="http://www.w3.org/2000/svg" viewBox="0 0 64 64" width="64" height="64">
  <defs>
    <filter id="g" x="-50%" y="-50%" width="200%" height="200%"><feGaussianBlur stdDeviation="2"/></filter>
    <path id="q" d="M18 50 Q24 24 50 4 Q56 8 52 18 Q44 38 22 52 Z"/>
    <clipPath id="c"><use href="#q"/></clipPath>
  </defs>
  <!-- inkwell -->
  <path d="M10 46 L30 46 L32 60 L8 60 Z" fill="#2a2440" stroke="#140d0a" stroke-width="2.8" stroke-linejoin="round"/>
  <path d="M22 46 L30 46 L32 60 L22 60 Z" fill="#1a1630"/>
  <path d="M10 46 L30 46 L32 60 L8 60 Z" fill="none" stroke="#140d0a" stroke-width="2.8" stroke-linejoin="round"/>
  <ellipse cx="20" cy="46" rx="10" ry="3" fill="#a896ff" filter="url(#g)"/>
  <ellipse cx="20" cy="46" rx="8" ry="2.4" fill="#6a56d0" stroke="#140d0a" stroke-width="1.6"/>
  <!-- white quill -->
  <use href="#q" fill="#ece6d8"/>
  <g clip-path="url(#c)">
    <path d="M52 0 Q48 30 22 56 L64 64 V0 Z" fill="#b8b0a0"/>
  </g>
  <path d="M20 50 Q32 28 52 6" stroke="#140d0a" stroke-width="1.2" fill="none"/>
  <path d="M30 34 L36 36 M36 26 L42 28 M42 18 L47 20" stroke="#140d0a" stroke-width="1" />
  <use href="#q" fill="none" stroke="#140d0a" stroke-width="2.6" stroke-linejoin="round"/>
  <!-- violet ink nib -->
  <path d="M18 50 L22 52 L16 58 Z" fill="#a896ff" stroke="#140d0a" stroke-width="1.6" stroke-linejoin="round"/>
</svg>
