<svg xmlns="http://www.w3.org/2000/svg" viewBox="0 0 64 64" width="64" height="64">
  <defs>
    <filter id="g" x="-50%" y="-50%" width="200%" height="200%"><feGaussianBlur stdDeviation="2"/></filter>
    <path id="s" d="M32 10 Q38.2 6.8 42 12.7 Q49 13 49.3 20 Q55.2 23.8 52 30 Q55.2 36.2 49.3 40 Q49 47 42 47.3 Q38.2 53.2 32 50 Q25.8 53.2 22 47.3 Q15 47 14.7 40 Q8.8 36.2 12 30 Q8.8 23.8 14.7 20 Q15 13 22 12.7 Q25.8 6.8 32 10 Z"/>
    <clipPath id="c"><use href="#s"/></clipPath>
  </defs>
  <!-- ribbon tails -->
  <path d="M24 44 L17 61 L22 58 L25 62 L30 47 Z M40 44 L47 61 L42 58 L39 62 L34 47 Z" fill="#5a3a70" stroke="#140d0a" stroke-width="2.4" stroke-linejoin="round"/>
  <!-- wax seal -->
  <use href="#s" fill="#4a2e64"/>
  <g clip-path="url(#c)">
    <path d="M56 14 Q46 40 14 50 L64 64 Z" fill="#2c1a40"/>
    <path d="M14 26 Q18 14 30 10 Q20 16 17 28 Z" fill="#6e4a90"/>
  </g>
  <use href="#s" fill="none" stroke="#140d0a" stroke-width="2.8" stroke-linejoin="round"/>
  <circle cx="32" cy="30" r="12" fill="none" stroke="#140d0a" stroke-width="1.4"/>
  <!-- black moon sigil -->
  <path d="M34 19 A11 11 0 1 0 34 41 A13.5 13.5 0 0 1 34 19 Z" fill="#c98bff" filter="url(#g)"/>
  <path d="M34 19 A11 11 0 1 0 34 41 A13.5 13.5 0 0 1 34 19 Z" fill="#e8ccff" stroke="#140d0a" stroke-width="1.2"/>
  <circle cx="40" cy="25" r="1.8" fill="#e8ccff"/>
  <circle cx="41" cy="33" r="1.3" fill="#e8ccff"/>
</svg>
