<svg xmlns="http://www.w3.org/2000/svg" viewBox="0 0 280 160" width="280" height="160">
<defs><linearGradient id="cielo" x1="0" y1="0" x2="0" y2="1"><stop offset="0" stop-color="#2e2c60"/><stop offset="1" stop-color="#0f0f2c"/></linearGradient><radialGradient id="halo" cx="0.56" cy="0.45" r="0.45"><stop offset="0" stop-color="#a896ff" stop-opacity="0.4"/><stop offset="1" stop-color="#a896ff" stop-opacity="0"/></radialGradient><radialGradient id="vineta" cx="0.5" cy="0.5" r="0.78"><stop offset="0.58" stop-color="#000" stop-opacity="0"/><stop offset="1" stop-color="#000" stop-opacity="0.62"/></radialGradient><filter id="brillo" x="-50%" y="-50%" width="200%" height="200%"><feGaussianBlur stdDeviation="3"/></filter><filter id="suave" x="-50%" y="-50%" width="200%" height="200%"><feGaussianBlur stdDeviation="1.4"/></filter><filter id="fuerte" x="-50%" y="-50%" width="200%" height="200%"><feGaussianBlur stdDeviation="6"/></filter></defs>
<rect width="280" height="160" fill="url(#cielo)"/>
<path d="M138.5 33.4h0.1M226.7 19.2h0.1M89.9 41.6h0.1M136.1 21.6h0.1M113.5 19.8h0.1M46.9 37.9h0.1M250.3 41.3h0.1M177.7 20.3h0.1M121.4 8.7h0.1M204 17.8h0.1M81.7 58.8h0.1M95.3 58.7h0.1M173 45.7h0.1M175.8 10.7h0.1M199.6 15.5h0.1M114.2 7.8h0.1M16.4 22.1h0.1M3.9 23.1h0.1M238 59.9h0.1M118.4 6.5h0.1M96.9 3.8h0.1M60.9 37.3h0.1" fill="none" stroke="#dcd8ff" stroke-width="1.2" stroke-linecap="round" opacity="0.8"/><circle cx="52" cy="26" r="18.4" fill="#cfc8ff" opacity="0.45" filter="url(#brillo)"/><circle cx="52" cy="26" r="8" fill="#e6e2ff"/><circle cx="54.4" cy="24.4" r="2" fill="#c9c3ee" opacity="0.6"/><path d="M0 110 L0 80 L20 64 L40 80 L40 70 L60 70 L60 84 L90 84 L110 60 L130 84 L130 110 Z M190 110 L190 74 L214 56 L238 74 L238 64 L248 64 L248 78 L280 78 L280 110 Z" fill="#15133a"/><path d="M20 70 h6 v6 h-6 Z M104 72 h6 v6 h-6 Z M210 66 h6 v6 h-6 Z" fill="#ffb060" opacity="0.7"/><rect width="280" height="160" fill="url(#halo)"/><g transform="translate(158 70)"><path d="M-44 0 A44 44 0 1 1 44 0 A44 44 0 1 1 -44 0M-35.2 0 A35.2 35.2 0 1 1 35.2 0 A35.2 35.2 0 1 1 -35.2 0" fill="none" stroke="#a896ff" stroke-width="5" opacity="0.6" filter="url(#brillo)"/><path d="M-44 0 A44 44 0 1 1 44 0 A44 44 0 1 1 -44 0" fill="none" stroke="#efe9ff" stroke-width="1.6"/><path d="M-35.2 0 A35.2 35.2 0 1 1 35.2 0 A35.2 35.2 0 1 1 -35.2 0" fill="none" stroke="#efe9ff" stroke-width="0.8"/><path d="M0 -35.2 L30.5 -17.6 L30.5 17.6 L0 35.2 L-30.5 17.6 L-30.5 -17.6 L0 -35.2 L30.5 -17.6 L30.5 17.6 L0 35.2 L-30.5 17.6 L-30.5 -17.6 Z" fill="none" stroke="#a896ff" stroke-width="1.2" stroke-linejoin="round" opacity="0.9"/><path d="M37.8 7.7 L37.8 15.7 M37.8 10.1 L41 7.7 M37.8 12.5 L34.6 10.1 M23.7 25.1 L30.1 33.1 L30.1 25.1 L23.7 33.1 Z M5.6 35.4 Q8.8 33 12 35.4 L8.8 42.6 Z M-11.7 33.8 L-14.9 37.8 L-11.7 41.8 L-8.5 37.8 Z M-29.1 22.9 L-29.1 30.9 M-32.3 25.3 L-25.9 28.5 M-32.3 28.5 L-25.9 25.3 M-38.6 4.8 L-38.6 12.8 M-38.6 4.8 L-36.2 7.2 M-38.6 12.8 L-41 10.4 M-37.8 -15.7 L-37.8 -7.7 M-37.8 -15.7 L-34.6 -12.5 M-37.8 -11.7 L-41 -14.1 M-26.9 -33.1 L-30.1 -29.1 L-26.9 -25.1 L-23.7 -29.1 Z M-8.8 -42.6 L-8.8 -34.6 M-8.8 -40.2 L-5.6 -42.6 M-8.8 -37.8 L-12 -40.2 M8.5 -41.8 L14.9 -33.8 L14.9 -41.8 L8.5 -33.8 Z M29.1 -30.9 L29.1 -22.9 M29.1 -28.5 L32.3 -30.9 M29.1 -26.1 L25.9 -28.5 M35.4 -8.8 L41.8 -8.8 M38.6 -12.8 L38.6 -4.8 M36.2 -12 L41 -5.6" fill="none" stroke="#efe9ff" stroke-width="1" stroke-linecap="round" stroke-linejoin="round"/></g><path d="M158 70 L158 38 M158 70 L180 82" fill="none" stroke="#a896ff" stroke-width="5" stroke-linecap="round" stroke-linejoin="round" opacity="0.7" filter="url(#brillo)"/><path d="M158 70 L158 38 M158 70 L180 82" fill="none" stroke="#efe9ff" stroke-width="1.6" stroke-linecap="round" stroke-linejoin="round"/><path d="M-10 160 L-10 124 L290 112 L290 160 Z" fill="#100e28" stroke="#140d0a" stroke-width="1.6"/><path d="M-10 124 L290 112" fill="none" stroke="#a896ff" stroke-width="1.2" opacity="0.5"/><path d="M-10 132 L290 120 M20 124 L16 160 M80 122 L78 160 M140 119 L140 160 M200 117 L202 160 M260 114 L264 160" fill="none" stroke="#0a0818" stroke-width="1"/><path d="M10 70 H80 M20 86 H96 M4 100 H70 M30 54 H90" fill="none" stroke="#cfc4ff" stroke-width="1.2" opacity="0.6" stroke-linecap="round"/><g transform="translate(84 116.6) scale(0.9)" opacity="0.18"><path d="M-30 -8 Q-20 -12 -12 -26 Q-6 -44 0 -48 Q8 -52 12 -44 Q14 -32 12 -22 L22 -6 L28 0 L18 0 L8 -12 L0 -6 L-6 0 L-14 -2 Q-22 -2 -30 -8 Z" fill="#a896ff"/><path d="M4 -44 L16 -40 L26 -46" fill="none" stroke="#a896ff" stroke-width="5.5" stroke-linecap="round" stroke-linejoin="round"/><path d="M17.3 -37.9 L25.8 -37 Q25.8 -31 23.8 -29 L20.6 -45.6 L14.7 -42.1 Z" fill="#a896ff"/><circle cx="26" cy="-46" r="2.7" fill="#a896ff"/><path d="M-2 -44 L-14 -38 L-22 -32" fill="none" stroke="#a896ff" stroke-width="5.5" stroke-linecap="round" stroke-linejoin="round"/><path d="M-15.5 -40 L-22.8 -34.7 Q-16.8 -20.7 -18.8 -18.7 L-16.8 -26.7 L-12.5 -36 Z" fill="#a896ff"/><circle cx="-22" cy="-32" r="2.7" fill="#a896ff"/><path d="M-30 -24 L40 -54" fill="none" stroke="#a896ff" stroke-width="2.4" stroke-linecap="round"/><g transform="translate(8 -54) rotate(26) scale(1)"><circle cx="0" cy="0" r="6.2" fill="#a896ff"/><path d="M-15 -3.5 Q0 -9 15 -3.5 Q0 1 -15 -3.5 Z" fill="#a896ff"/><path d="M-8 -5 Q-6 -22 -1 -32 Q-6 -38 -15 -36 Q-6 -32 -3 -29 Q2 -18 8 -5 Z" fill="#a896ff"/><path d="M1 3 Q5 13 12 17 Q9 8 6 0 Z" fill="#a896ff"/></g></g><g transform="translate(112 115.5) scale(0.9)" opacity="0.32"><path d="M-30 -8 Q-20 -12 -12 -26 Q-6 -44 0 -48 Q8 -52 12 -44 Q14 -32 12 -22 L22 -6 L28 0 L18 0 L8 -12 L0 -6 L-6 0 L-14 -2 Q-22 -2 -30 -8 Z" fill="#a896ff"/><path d="M4 -44 L16 -40 L26 -46" fill="none" stroke="#a896ff" stroke-width="5.5" stroke-linecap="round" stroke-linejoin="round"/><path d="M17.3 -37.9 L25.8 -37 Q25.8 -31 23.8 -29 L20.6 -45.6 L14.7 -42.1 Z" fill="#a896ff"/><circle cx="26" cy="-46" r="2.7" fill="#a896ff"/><path d="M-2 -44 L-14 -38 L-22 -32" fill="none" stroke="#a896ff" stroke-width="5.5" stroke-linecap="round" stroke-linejoin="round"/><path d="M-15.5 -40 L-22.8 -34.7 Q-16.8 -20.7 -18.8 -18.7 L-16.8 -26.7 L-12.5 -36 Z" fill="#a896ff"/><circle cx="-22" cy="-32" r="2.7" fill="#a896ff"/><path d="M-30 -24 L40 -54" fill="none" stroke="#a896ff" stroke-width="2.4" stroke-linecap="round"/><g transform="translate(8 -54) rotate(26) scale(1)"><circle cx="0" cy="0" r="6.2" fill="#a896ff"/><path d="M-15 -3.5 Q0 -9 15 -3.5 Q0 1 -15 -3.5 Z" fill="#a896ff"/><path d="M-8 -5 Q-6 -22 -1 -32 Q-6 -38 -15 -36 Q-6 -32 -3 -29 Q2 -18 8 -5 Z" fill="#a896ff"/><path d="M1 3 Q5 13 12 17 Q9 8 6 0 Z" fill="#a896ff"/></g></g><g transform="translate(140 114.4) scale(0.9)" opacity="0.5"><path d="M-30 -8 Q-20 -12 -12 -26 Q-6 -44 0 -48 Q8 -52 12 -44 Q14 -32 12 -22 L22 -6 L28 0 L18 0 L8 -12 L0 -6 L-6 0 L-14 -2 Q-22 -2 -30 -8 Z" fill="#a896ff"/><path d="M4 -44 L16 -40 L26 -46" fill="none" stroke="#a896ff" stroke-width="5.5" stroke-linecap="round" stroke-linejoin="round"/><path d="M17.3 -37.9 L25.8 -37 Q25.8 -31 23.8 -29 L20.6 -45.6 L14.7 -42.1 Z" fill="#a896ff"/><circle cx="26" cy="-46" r="2.7" fill="#a896ff"/><path d="M-2 -44 L-14 -38 L-22 -32" fill="none" stroke="#a896ff" stroke-width="5.5" stroke-linecap="round" stroke-linejoin="round"/><path d="M-15.5 -40 L-22.8 -34.7 Q-16.8 -20.7 -18.8 -18.7 L-16.8 -26.7 L-12.5 -36 Z" fill="#a896ff"/><circle cx="-22" cy="-32" r="2.7" fill="#a896ff"/><path d="M-30 -24 L40 -54" fill="none" stroke="#a896ff" stroke-width="2.4" stroke-linecap="round"/><g transform="translate(8 -54) rotate(26) scale(1)"><circle cx="0" cy="0" r="6.2" fill="#a896ff"/><path d="M-15 -3.5 Q0 -9 15 -3.5 Q0 1 -15 -3.5 Z" fill="#a896ff"/><path d="M-8 -5 Q-6 -22 -1 -32 Q-6 -38 -15 -36 Q-6 -32 -3 -29 Q2 -18 8 -5 Z" fill="#a896ff"/><path d="M1 3 Q5 13 12 17 Q9 8 6 0 Z" fill="#a896ff"/></g></g><g transform="translate(1.4 -1.4)" opacity="0.95"><g transform="translate(172 116) scale(0.9 0.9)"><path d="M-30 -8 Q-20 -12 -12 -26 Q-6 -44 0 -48 Q8 -52 12 -44 Q14 -32 12 -22 L22 -6 L28 0 L18 0 L8 -12 L0 -6 L-6 0 L-14 -2 Q-22 -2 -30 -8 Z" fill="#a896ff"/><path d="M4 -44 L16 -40 L26 -46" fill="none" stroke="#a896ff" stroke-width="5.5" stroke-linecap="round" stroke-linejoin="round"/><path d="M17.3 -37.9 L25.8 -37 Q25.8 -31 23.8 -29 L20.6 -45.6 L14.7 -42.1 Z" fill="#a896ff"/><circle cx="26" cy="-46" r="2.7" fill="#a896ff"/><path d="M-2 -44 L-14 -38 L-22 -32" fill="none" stroke="#a896ff" stroke-width="5.5" stroke-linecap="round" stroke-linejoin="round"/><path d="M-15.5 -40 L-22.8 -34.7 Q-16.8 -20.7 -18.8 -18.7 L-16.8 -26.7 L-12.5 -36 Z" fill="#a896ff"/><circle cx="-22" cy="-32" r="2.7" fill="#a896ff"/><path d="M-30 -24 L40 -54" fill="none" stroke="#a896ff" stroke-width="2.4" stroke-linecap="round"/><g transform="translate(8 -54) rotate(26) scale(1)"><circle cx="0" cy="0" r="6.2" fill="#a896ff"/><path d="M-15 -3.5 Q0 -9 15 -3.5 Q0 1 -15 -3.5 Z" fill="#a896ff"/><path d="M-8 -5 Q-6 -22 -1 -32 Q-6 -38 -15 -36 Q-6 -32 -3 -29 Q2 -18 8 -5 Z" fill="#a896ff"/><path d="M1 3 Q5 13 12 17 Q9 8 6 0 Z" fill="#a896ff"/></g></g></g><g transform="translate(172 116) scale(0.9 0.9)"><path d="M-30 -8 Q-20 -12 -12 -26 Q-6 -44 0 -48 Q8 -52 12 -44 Q14 -32 12 -22 L22 -6 L28 0 L18 0 L8 -12 L0 -6 L-6 0 L-14 -2 Q-22 -2 -30 -8 Z" fill="#0b0910"/><path d="M4 -44 L16 -40 L26 -46" fill="none" stroke="#0b0910" stroke-width="5.5" stroke-linecap="round" stroke-linejoin="round"/><path d="M17.3 -37.9 L25.8 -37 Q25.8 -31 23.8 -29 L20.6 -45.6 L14.7 -42.1 Z" fill="#0b0910"/><circle cx="26" cy="-46" r="2.7" fill="#0b0910"/><path d="M-2 -44 L-14 -38 L-22 -32" fill="none" stroke="#0b0910" stroke-width="5.5" stroke-linecap="round" stroke-linejoin="round"/><path d="M-15.5 -40 L-22.8 -34.7 Q-16.8 -20.7 -18.8 -18.7 L-16.8 -26.7 L-12.5 -36 Z" fill="#0b0910"/><circle cx="-22" cy="-32" r="2.7" fill="#0b0910"/><path d="M-30 -24 L40 -54" fill="none" stroke="#0b0910" stroke-width="2.4" stroke-linecap="round"/><g transform="translate(8 -54) rotate(26) scale(1)"><circle cx="0" cy="0" r="6.2" fill="#0b0910"/><path d="M-15 -3.5 Q0 -9 15 -3.5 Q0 1 -15 -3.5 Z" fill="#0b0910"/><path d="M-8 -5 Q-6 -22 -1 -32 Q-6 -38 -15 -36 Q-6 -32 -3 -29 Q2 -18 8 -5 Z" fill="#0b0910"/><path d="M1 3 Q5 13 12 17 Q9 8 6 0 Z" fill="#0b0910"/></g></g><circle cx="210" cy="64.7" r="6.8" fill="#a896ff" opacity="0.85" filter="url(#brillo)"/><circle cx="210" cy="64.7" r="2.6" fill="#efe9ff"/><path d="M228.5 53.8h0.1M235.3 59h0.1M154.4 111.8h0.1M136.9 80.6h0.1M105.8 116.9h0.1M237.6 53.7h0.1M99.6 77.8h0.1M163 102h0.1M134.8 87.2h0.1M105.7 57h0.1M92.6 83.7h0.1M170 89.4h0.1M229.7 64.5h0.1M134.8 77h0.1" fill="none" stroke="#a896ff" stroke-width="3.6" stroke-linecap="round" opacity="0.6" filter="url(#suave)"/><path d="M228.5 53.8h0.1M235.3 59h0.1M154.4 111.8h0.1M136.9 80.6h0.1M105.8 116.9h0.1M237.6 53.7h0.1M99.6 77.8h0.1M163 102h0.1M134.8 87.2h0.1M105.7 57h0.1M92.6 83.7h0.1M170 89.4h0.1M229.7 64.5h0.1M134.8 77h0.1" fill="none" stroke="#f4f0ff" stroke-width="1.3" stroke-linecap="round"/>
<rect width="280" height="160" fill="url(#vineta)"/>
</svg>
