<svg xmlns="http://www.w3.org/2000/svg" viewBox="0 0 280 160" width="280" height="160"><defs><style>.k{stroke:#140d0a}.m{fill:none;stroke:#140d0a}</style><linearGradient id="cielo" x1="0" y1="0" x2="0" y2="1"><stop offset="0" stop-color="#1f3c3a"/><stop offset="1" stop-color="#0b1918"/></linearGradient><radialGradient id="halo" cx="0.47" cy="0.42" r="0.4"><stop offset="0" stop-color="#72e0cc" stop-opacity="0.28"/><stop offset="1" stop-color="#72e0cc" stop-opacity="0"/></radialGradient><radialGradient id="vineta" cx="0.5" cy="0.5" r="0.78"><stop offset="0.55" stop-color="#000" stop-opacity="0"/><stop offset="1" stop-color="#000" stop-opacity="0.6"/></radialGradient><filter id="brillo" x="-50%" y="-50%" width="200%" height="200%"><feGaussianBlur stdDeviation="3"/></filter><filter id="suave" x="-50%" y="-50%" width="200%" height="200%"><feGaussianBlur stdDeviation="1.3"/></filter><filter id="niebla" x="-50%" y="-50%" width="200%" height="200%"><feGaussianBlur stdDeviation="6"/></filter><g id="dg"><path d="M1.5 -2.1 L9 -1.9 L12 0 L9 1.9 L1.5 2.1 Z" fill="#e4ebee" class="k" stroke-width="1.1"/><path d="M1.5 0.2 L11.6 0.2 L9 1.7 L1.5 1.8 Z" fill="#8f9aa2"/><path d="M3 -1 L8.4 -1" stroke="#fff" stroke-width="0.6" opacity="0.8"/><path d="M-5.5 0 L0 0" class="k" stroke-width="3.8"/><path d="M-5.5 0 L0 0" stroke="#4a3222" stroke-width="2"/><path d="M0.8 -3.6 L0.8 3.6" class="k" stroke-width="2.8"/><path d="M0.8 -3.6 L0.8 3.6" stroke="#b89a4a" stroke-width="1.3"/></g><g id="cd"><rect x="-3.6" y="-5" width="7.2" height="10" rx="1" fill="#e8dcc0" class="k" stroke-width="1"/><rect x="-2.4" y="-3.8" width="4.8" height="7.6" fill="#8e2f36"/><path d="M0 -2.3 L1.4 0 L0 2.3 L-1.4 0 Z" fill="#e8dcc0"/></g></defs><rect width="280" height="160" fill="url(#cielo)"/><g stroke-linecap="round" stroke-linejoin="round"><path d="M0 86 H280 V110 H0 Z" fill="#132724"/><path d="M0 86 H280" class="m" stroke-width="1.6" stroke="#0a1514"/><path d="M4 90 h18 v16 h-18 ZM28 90 h18 v16 h-18 ZM52 90 h18 v16 h-18 ZM76 90 h18 v16 h-18 ZM100 90 h18 v16 h-18 ZM124 90 h18 v16 h-18 ZM148 90 h18 v16 h-18 ZM172 90 h18 v16 h-18 ZM196 90 h18 v16 h-18 ZM220 90 h18 v16 h-18 ZM244 90 h18 v16 h-18 ZM268 90 h18 v16 h-18 Z" fill="none" stroke="#0e1d1b" stroke-width="1.2"/><path d="M44 84 L44 38 Q44 22 58 20 Q72 22 72 38 L72 84 Z" fill="#9fe6d6" opacity="0.35" filter="url(#suave)"/><path d="M44 84 L44 38 Q44 22 58 20 Q72 22 72 38 L72 84 Z" fill="#3d7068" stroke="#0a1514" stroke-width="2.2"/><path d="M44 60 Q56 44 72 30 L72 40 Q58 56 44 70 Z" fill="#5a948a" opacity="0.6"/><path d="M58 20 V84 M44 46 H72 M44 66 H72" fill="none" stroke="#0a1514" stroke-width="1.6"/><path d="M41 84 H75" class="m" stroke-width="3"/><path d="M44 110 L72 110 L92 160 L60 160 Z" fill="#72e0cc" opacity="0.07"/><path d="M134 84 L134 38 Q134 22 148 20 Q162 22 162 38 L162 84 Z" fill="#9fe6d6" opacity="0.35" filter="url(#suave)"/><path d="M134 84 L134 38 Q134 22 148 20 Q162 22 162 38 L162 84 Z" fill="#3d7068" stroke="#0a1514" stroke-width="2.2"/><path d="M134 60 Q146 44 162 30 L162 40 Q148 56 134 70 Z" fill="#5a948a" opacity="0.6"/><path d="M148 20 V84 M134 46 H162 M134 66 H162" fill="none" stroke="#0a1514" stroke-width="1.6"/><path d="M131 84 H165" class="m" stroke-width="3"/><path d="M134 110 L162 110 L182 160 L150 160 Z" fill="#72e0cc" opacity="0.07"/><path d="M224 84 L224 38 Q224 22 238 20 Q252 22 252 38 L252 84 Z" fill="#9fe6d6" opacity="0.35" filter="url(#suave)"/><path d="M224 84 L224 38 Q224 22 238 20 Q252 22 252 38 L252 84 Z" fill="#3d7068" stroke="#0a1514" stroke-width="2.2"/><path d="M224 60 Q236 44 252 30 L252 40 Q238 56 224 70 Z" fill="#5a948a" opacity="0.6"/><path d="M238 20 V84 M224 46 H252 M224 66 H252" fill="none" stroke="#0a1514" stroke-width="1.6"/><path d="M221 84 H255" class="m" stroke-width="3"/><path d="M224 110 L252 110 L272 160 L240 160 Z" fill="#72e0cc" opacity="0.07"/><rect width="280" height="160" fill="url(#halo)"/><path d="M0 110 H280 V160 H0 Z" fill="#0f1f1d"/><path d="M0 110 H280" class="m" stroke-width="2"/><path d="M0 117 H280M0 127 H280M0 141 H280M-60 110 L-310 160M-26 110 L-233.5 160M8 110 L-157 160M42 110 L-80.5 160M76 110 L-4 160M110 110 L72.5 160M144 110 L149 160M178 110 L225.5 160M212 110 L302 160M246 110 L378.5 160M280 110 L455 160M314 110 L531.5 160M348 110 L608 160" fill="none" stroke="#0a1514" stroke-width="1"/><path d="M0 0 L38 0 Q30 22 22 34 Q12 60 18 112 L0 114 Z" fill="#4a2028" class="k" stroke-width="2.4"/><path d="M22 34 Q12 60 18 112 L10 113 Q6 70 14 36 Z" fill="#32151b"/><path d="M8 4 Q10 50 6 110 M18 2 Q20 20 16 36" fill="none" stroke="#2a1116" stroke-width="1.1"/><path d="M16 32 Q24 36 30 30" class="m" stroke-width="2.6"/><path d="M16 32 Q24 36 30 30" fill="none" stroke="#b89a4a" stroke-width="1.2"/><ellipse cx="236" cy="133" rx="22" ry="3.5" fill="#050b0a" opacity="0.6"/><path d="M216 132 Q218 102 224 76 Q228 66 236 66 Q246 68 248 78 Q252 106 258 132 Z" fill="#4c2029" class="k" stroke-width="2.4"/><path d="M238 68 Q246 68 248 78 Q252 106 258 132 L242 132 Q244 100 238 68 Z" fill="#351419"/><path d="M226 90 Q228 110 226 130 M236 84 Q238 108 236 131" class="m" stroke-width="1"/><path d="M222 104 Q236 108 252 104" fill="none" stroke="#b89a4a" stroke-width="1.6"/><path d="M245 80 L255 74 L260 63" class="m" stroke-width="8"/><path d="M245 80 L255 74 L260 63" fill="none" stroke="#351419" stroke-width="5.4"/><path d="M225 70 Q222 52 235 48 Q247 50 247 64 Q245 74 236 75 Q228 75 225 70 Z" fill="#4c2029" class="k" stroke-width="2.4"/><path d="M238 50 Q247 52 247 64 Q245 73 238 75 Q242 62 238 50 Z" fill="#351419"/><ellipse cx="230.5" cy="63" rx="5" ry="6.4" fill="#140a0c"/><circle cx="228.6" cy="62" r="2.2" fill="#ff6a4a" opacity="0.7" filter="url(#suave)"/><circle cx="232.6" cy="62" r="2.2" fill="#ff6a4a" opacity="0.7" filter="url(#suave)"/><circle cx="228.6" cy="62" r="0.9" fill="#ffc0a0"/><circle cx="232.6" cy="62" r="0.9" fill="#ffc0a0"/><path d="M226 80 L216 74 L212 62" class="m" stroke-width="8.4"/><path d="M226 80 L216 74 L212 62" fill="none" stroke="#4c2029" stroke-width="5.8"/><circle cx="211.5" cy="59.5" r="3.2" fill="#c9a07a" class="k" stroke-width="1.3"/><circle cx="260.5" cy="60.5" r="3" fill="#a88262" class="k" stroke-width="1.3"/><ellipse cx="94" cy="131" rx="30" ry="3.5" fill="#050b0a" opacity="0.6"/><g transform="translate(1.4 -1.4)" fill="#72e0cc" stroke="#72e0cc" stroke-width="0.6" opacity="0.9"><g id="h" transform="translate(94 104) scale(1.1)"><path d="M-4 -46 Q-3 -60 8 -59 Q15 -56 13 -47 Q11 -42 5 -41 Q-2 -41 -4 -46 Z"/><path d="M-3 -52 L-16 -47 L-3 -44 Z"/><path d="M-7 -40 Q4 -45 12 -39 L7 -18 Q4 -4 3 0 L-6 0 Q-10 -20 -7 -40 Z"/><path d="M-6 -40 Q-22 -32 -32 -14 L-24 -17 L-27 -6 L-16 -12 L-10 -2 L-4 -20 Z"/><path d="M0 -2 L15 10 L24 25" fill="none" stroke-width="6"/><path d="M24 25 L31 25" fill="none" stroke-width="4"/><path d="M-3 -1 L-13 11 L-26 23" fill="none" stroke-width="6"/><path d="M-26 23 L-31 20" fill="none" stroke-width="4"/><path d="M8 -37 L22 -38 L33 -40" fill="none" stroke-width="5.2"/><path d="M29 -44 L36 -40 L29 -36 Z"/><circle cx="37.5" cy="-40" r="2.5"/><path d="M-2 -37 L-13 -28 L-19 -19" fill="none" stroke-width="4.6"/><circle cx="-20" cy="-17" r="2.6"/><path d="M-19 -17 L-24 -14 M-19 -16 L-22 -11" fill="none" stroke-width="1.4"/></g></g><use href="#h" fill="#0b0910" stroke="#0b0910" stroke-width="0.6"/><path d="M103.5 50.4 l2.4 -0.4" stroke="#e8fff9" stroke-width="1"/><path d="M131.8 62 Q168 58 197 62.5" fill="none" stroke="#72e0cc" stroke-width="4" opacity="0.6" filter="url(#suave)"/><path d="M131.8 62 Q168 58 197 62.5" fill="none" stroke="#c8fff2" stroke-width="1.4"/><path d="M146 66 L176 67 M150 54 L172 55 M160 72 L186 71" stroke="#72e0cc" stroke-width="1" opacity="0.5"/><circle cx="202" cy="62.5" r="7" fill="#72e0cc" opacity="0.35" filter="url(#brillo)"/><use href="#dg" transform="translate(198 62.6) rotate(4) scale(1.4)"/><circle cx="131.8" cy="62" r="3" fill="#72e0cc" opacity="0.8" filter="url(#suave)"/><path d="M72 90 Q64 100 70 112 M78 94 Q84 104 80 118" fill="none" stroke="#e8dcc0" stroke-width="0.8" opacity="0.35" stroke-dasharray="2 2"/><use href="#cd" transform="translate(70 96) rotate(-24) scale(1.4)"/><use href="#cd" transform="translate(82 107) rotate(32) scale(1.4)"/><use href="#cd" transform="translate(66 119) rotate(70) scale(1.4)"/></g><rect width="280" height="160" fill="url(#vineta)"/></svg>