<svg xmlns="http://www.w3.org/2000/svg" viewBox="0 0 280 160" width="280" height="160"><defs><linearGradient id="cielo" x1="0" y1="0" x2="0" y2="1"><stop offset="0" stop-color="#2c1642"/><stop offset="1" stop-color="#0e0616"/></linearGradient><radialGradient id="halo" cx="0.5" cy="0.35" r="0.45"><stop offset="0" stop-color="#c98bff" stop-opacity="0.4"/><stop offset="1" stop-color="#c98bff" stop-opacity="0"/></radialGradient><radialGradient id="vineta" cx="0.5" cy="0.5" r="0.8"><stop offset="0.6" stop-color="#000" stop-opacity="0"/><stop offset="1" stop-color="#000" stop-opacity="0.6"/></radialGradient><filter id="brillo" x="-50%" y="-50%" width="200%" height="200%"><feGaussianBlur stdDeviation="3"/></filter><filter id="suave" x="-50%" y="-50%" width="200%" height="200%"><feGaussianBlur stdDeviation="1.4"/></filter><filter id="fuerte" x="-50%" y="-50%" width="200%" height="200%"><feGaussianBlur stdDeviation="6"/></filter></defs><rect width="280" height="160" fill="url(#cielo)"/><path d="M0 0 L280 0 L280 124 L0 124 Z" fill="#1c0e2a"/><circle cx="140" cy="50" r="34" fill="#c98bff" opacity="0.5" filter="url(#fuerte)"/><circle cx="140" cy="50" r="30" fill="#3a1c5a" stroke="#0a0412" stroke-width="3"/><circle cx="140" cy="50" r="26" fill="#6a3aa0"/><circle cx="140" cy="50" r="10" fill="#e0b8ff"/><path d="M140 50 L168 50 M140 50 L164.2 64 M140 50 L154 74.2 M140 50 L140 78 M140 50 L126 74.2 M140 50 L115.8 64 M140 50 L112 50 M140 50 L115.8 36 M140 50 L126 25.8 M140 50 L140 22 M140 50 L154 25.8 M140 50 L164.2 36 " stroke="#0a0412" stroke-width="2.4"/><circle cx="140" cy="50" r="10" fill="none" stroke="#0a0412" stroke-width="2.4"/><circle cx="140" cy="50" r="19" fill="none" stroke="#0a0412" stroke-width="1.6"/><path d="M104 26 L110 20 L114 30 Z M170 70 L176 76 L168 78 Z" fill="#1c0e2a"/><path d="M12 0 L36 0 L34 124 L14 124 Z" fill="#241238"/><path d="M244 0 L268 0 L266 124 L246 124 Z" fill="#241238"/><path d="M60 124 L60 60 L70 50 L74 64 L74 124 Z M206 124 L206 70 L214 58 L220 72 L220 124 Z" fill="#241238"/><rect width="280" height="160" fill="url(#halo)"/><path d="M0 124 L280 124 L280 160 L0 160 Z" fill="#140a20"/><path d="M0 138 L280 138 M40 124 L30 160 M140 124 L140 160 M240 124 L250 160" stroke="#1f1030" stroke-width="1.2"/><g transform="translate(56 134) rotate(-8) scale(1 1)"><path d="M-4 -30 L-8 -15 L-10 0" fill="none" stroke="#140d0a" stroke-width="10.5" stroke-linecap="round" stroke-linejoin="round"/><path d="M-4 -30 L-8 -15 L-10 0" fill="none" stroke="#9aa2aa" stroke-width="7" stroke-linecap="round" stroke-linejoin="round"/><path d="M5 -30 L8 -15 L10 0" fill="none" stroke="#140d0a" stroke-width="10.5" stroke-linecap="round" stroke-linejoin="round"/><path d="M5 -30 L8 -15 L10 0" fill="none" stroke="#687078" stroke-width="7" stroke-linecap="round" stroke-linejoin="round"/><path d="M-15 0 L-6 0 L-6 -3 L-14 -3 Z M5 0 L15 0 L14 -3 L6 -3 Z" fill="#4a5058" stroke="#140d0a" stroke-width="1.4"/><path d="M-11 -52 Q0 -56 11 -52 L10 -28 L12 -18 L-12 -18 L-10 -28 Z" fill="#9aa2aa" stroke="#140d0a" stroke-width="2.2" stroke-linejoin="round"/><path d="M2 -54 Q9 -53 11 -52 L10 -28 L12 -18 L4 -18 Q8 -34 2 -54 Z" fill="#687078"/><path d="M-6 -40 L-7 -18 L7 -18 L6 -40 Z" fill="#6a2a2a" stroke="#140d0a" stroke-width="1.2"/><path d="M-9 -44 Q0 -40 9 -44 M-8 -30 L8 -30" fill="none" stroke="#140d0a" stroke-width="1"/><path d="M8 -48 Q14 -40 10 -32" fill="none" stroke="#140d0a" stroke-width="9.5" stroke-linecap="round" stroke-linejoin="round"/><path d="M8 -48 Q14 -40 10 -32" fill="none" stroke="#687078" stroke-width="6" stroke-linecap="round" stroke-linejoin="round"/><path d="M10 -32 L4 -74 L7 -76 L13 -33 Z" fill="#c8ced4" stroke="#140d0a" stroke-width="1.3" stroke-linejoin="round"/><path d="M4 -34 L17 -35" stroke="#140d0a" stroke-width="3.5" stroke-linecap="round"/><path d="M4 -34 L17 -35" stroke="#b08a3a" stroke-width="1.8" stroke-linecap="round"/><path d="M-9 -58 Q-10 -72 0 -74 Q10 -72 9 -58 Q9 -52 0 -52 Q-9 -52 -9 -58 Z" fill="#9aa2aa" stroke="#140d0a" stroke-width="2.2"/><path d="M2 -73 Q10 -70 9 -58 Q9 -53 2 -52 Q6 -62 2 -73 Z" fill="#687078"/><path d="M-9 -63 L5 -63" stroke="#140d0a" stroke-width="2.4"/><path d="M-8 -63 L-2 -63" stroke="#ff6a5a" stroke-width="1"/><path d="M0 -74 Q6 -84 14 -82 Q8 -78 4 -72 Z" fill="#8a2a2a" stroke="#140d0a" stroke-width="1.2"/><path d="M-24 -52 L-6 -52 L-6 -34 Q-8 -22 -15 -18 Q-22 -22 -24 -34 Z" fill="#7a3030" stroke="#140d0a" stroke-width="2.2" stroke-linejoin="round"/><path d="M-15 -52 L-6 -52 L-6 -34 Q-8 -22 -15 -18 Z" fill="#5e2222"/><path d="M-15 -48 L-15 -24 M-21 -40 L-9 -40" stroke="#c8a04a" stroke-width="2"/></g><g transform="translate(1.4 -1.4)" opacity="0.9"><g transform="translate(228 134) rotate(0) scale(-1.1 1.1)"><g fill="#c98bff"><path d="M-3 -62 Q-18 -58 -30 -48 Q-38 -42 -44 -40 L-37 -35 L-43 -29 L-34 -27 L-37 -18 L-26 -19 L-20 -9 Q-8 -30 5 -58 Z"/><path d="M-5 -41 Q-9 -20 -13 -1 L-8 0 L0 -26 L8 0 L13 -1 Q9 -20 5 -41 Z"/><path d="M-6 -61 Q1 -64 8 -60 Q7 -48 5 -38 L-5 -38 Q-7 -50 -6 -61 Z"/><path d="M-7 -60 Q-12 -70 -9 -79 Q-5 -70 -1 -64 Z"/><path d="M6 -61 Q10 -67 9 -73 Q5 -67 2 -64 Z"/><path d="M-3.5 -68.5 A5.5 5.5 0 1 1 7.5 -68.5 A5.5 5.5 0 1 1 -3.5 -68.5 Z"/><path d="M-1.5 -72.5 Q-4 -78 -10 -79 Q-5 -76 -4.5 -70.5 Z"/><path d="M2 -73.5 Q1 -80 -5 -84 Q-1 -84 3 -80 Q6 -77 6 -72.5 Z"/><path d="M25.2 -53 a2.8 2.8 0 1 0 5.6 0 a2.8 2.8 0 1 0 -5.6 0 ZM19.2 -58 a2.8 2.8 0 1 0 5.6 0 a2.8 2.8 0 1 0 -5.6 0 Z"/></g><path d="M5 -57 L16 -55 L28 -53 M-3 -57 L10 -56 L22 -58" fill="none" stroke="#c98bff" stroke-width="5.4" stroke-linecap="round" stroke-linejoin="round"/></g></g><g transform="translate(228 134) rotate(0) scale(-1.1 1.1)"><g fill="#0b0910"><path d="M-3 -62 Q-18 -58 -30 -48 Q-38 -42 -44 -40 L-37 -35 L-43 -29 L-34 -27 L-37 -18 L-26 -19 L-20 -9 Q-8 -30 5 -58 Z"/><path d="M-5 -41 Q-9 -20 -13 -1 L-8 0 L0 -26 L8 0 L13 -1 Q9 -20 5 -41 Z"/><path d="M-6 -61 Q1 -64 8 -60 Q7 -48 5 -38 L-5 -38 Q-7 -50 -6 -61 Z"/><path d="M-7 -60 Q-12 -70 -9 -79 Q-5 -70 -1 -64 Z"/><path d="M6 -61 Q10 -67 9 -73 Q5 -67 2 -64 Z"/><path d="M-3.5 -68.5 A5.5 5.5 0 1 1 7.5 -68.5 A5.5 5.5 0 1 1 -3.5 -68.5 Z"/><path d="M-1.5 -72.5 Q-4 -78 -10 -79 Q-5 -76 -4.5 -70.5 Z"/><path d="M2 -73.5 Q1 -80 -5 -84 Q-1 -84 3 -80 Q6 -77 6 -72.5 Z"/><path d="M25.2 -53 a2.8 2.8 0 1 0 5.6 0 a2.8 2.8 0 1 0 -5.6 0 ZM19.2 -58 a2.8 2.8 0 1 0 5.6 0 a2.8 2.8 0 1 0 -5.6 0 Z"/></g><path d="M5 -57 L16 -55 L28 -53 M-3 -57 L10 -56 L22 -58" fill="none" stroke="#0b0910" stroke-width="5.4" stroke-linecap="round" stroke-linejoin="round"/></g><path d="M191.8 70.1 L183.1 74.9 L174.4 77.3 L165.7 76.5 L157 73 L148.3 68.6 L139.6 65.1 L130.9 64.1 L122.2 65.6 L113.5 68.9 L104.8 72.3 L96.1 74.4 L87.4 74.5 L78.7 72.7 L70 70.1" fill="none" stroke="#c98bff" stroke-width="8" stroke-linecap="round" stroke-linejoin="round" opacity="0.8" filter="url(#brillo)"/><path d="M191.8 70.1 L183.1 74.9 L174.4 77.3 L165.7 76.5 L157 73 L148.3 68.6 L139.6 65.1 L130.9 64.1 L122.2 65.6 L113.5 68.9 L104.8 72.3 L96.1 74.4 L87.4 74.5 L78.7 72.7 L70 70.1" fill="none" stroke="#f0dcff" stroke-width="2.4" stroke-linecap="round" stroke-linejoin="round"/><path d="M191.8 70.1 L183.1 65.3 L174.4 62.8 L165.7 63.6 L157 67.1 L148.3 71.5 L139.6 75 L130.9 76.1 L122.2 74.5 L113.5 71.3 L104.8 67.8 L96.1 65.7 L87.4 65.6 L78.7 67.4 L70 70.1" fill="none" stroke="#c98bff" stroke-width="8" stroke-linecap="round" stroke-linejoin="round" opacity="0.8" filter="url(#brillo)"/><path d="M191.8 70.1 L183.1 65.3 L174.4 62.8 L165.7 63.6 L157 67.1 L148.3 71.5 L139.6 75 L130.9 76.1 L122.2 74.5 L113.5 71.3 L104.8 67.8 L96.1 65.7 L87.4 65.6 L78.7 67.4 L70 70.1" fill="none" stroke="#f0dcff" stroke-width="2" stroke-linecap="round" stroke-linejoin="round"/><path d="M72 80 L75 87 L82 90 L75 93 L72 100 L69 93 L62 90 L69 87 Z" fill="#c98bff" opacity="0.8" filter="url(#brillo)"/><path d="M72 80 L75 87 L82 90 L75 93 L72 100 L69 93 L62 90 L69 87 Z" fill="#fbf2ff"/><path d="M48 90 L51 97 L58 100 L51 103 L48 110 L45 103 L38 100 L45 97 Z" fill="#c98bff" opacity="0.8" filter="url(#brillo)"/><path d="M48 90 L51 97 L58 100 L51 103 L48 110 L45 103 L38 100 L45 97 Z" fill="#fbf2ff"/><circle cx="195.8" cy="76.8" r="6.2" fill="#c98bff" opacity="0.7" filter="url(#brillo)"/><circle cx="195.8" cy="76.8" r="2.6" fill="#f0dcff"/><circle cx="202.2" cy="71.4" r="6.2" fill="#c98bff" opacity="0.7" filter="url(#brillo)"/><circle cx="202.2" cy="71.4" r="2.6" fill="#f0dcff"/><path d="M233.2 86h0.1M134.7 82.3h0.1M193.5 128.9h0.1M124.1 53.1h0.1M114.9 36.8h0.1M168.6 129.3h0.1M81.4 105.9h0.1M82.2 123h0.1M151.4 68.5h0.1M46.1 45.6h0.1M220.4 48.7h0.1M163 85.9h0.1" stroke="#c98bff" stroke-width="4.4" stroke-linecap="round" opacity="0.6" filter="url(#suave)"/><path d="M233.2 86h0.1M134.7 82.3h0.1M193.5 128.9h0.1M124.1 53.1h0.1M114.9 36.8h0.1M168.6 129.3h0.1M81.4 105.9h0.1M82.2 123h0.1M151.4 68.5h0.1M46.1 45.6h0.1M220.4 48.7h0.1M163 85.9h0.1" stroke="#f4e8ff" stroke-width="1.6" stroke-linecap="round"/><rect width="280" height="160" fill="url(#vineta)"/></svg>
